<svg width="162" height="162" viewBox="0 0 162 162" fill="none" xmlns="http://www.w3.org/2000/svg">
<path d="M67.5834 114.542L34.0417 81L43.5005 71.4742L67.5834 95.5571L118.5 44.6409L127.958 54.1667M81.0001 13.9167C72.1906 13.9167 63.4673 15.6518 55.3284 19.0231C47.1895 22.3944 39.7943 27.3357 33.565 33.5649C20.9844 46.1455 13.9167 63.2084 13.9167 81C13.9167 98.7916 20.9844 115.855 33.565 128.435C39.7943 134.664 47.1895 139.606 55.3284 142.977C63.4673 146.348 72.1906 148.083 81.0001 148.083C98.7917 148.083 115.855 141.016 128.435 128.435C141.016 115.855 148.083 98.7916 148.083 81C148.083 72.1905 146.348 63.4673 142.977 55.3283C139.606 47.1894 134.664 39.7942 128.435 33.5649C122.206 27.3357 114.811 22.3944 106.672 19.0231C98.5328 15.6518 89.8096 13.9167 81.0001 13.9167Z" fill="#05603A"/>
</svg>
